<svg width="322" height="280" viewBox="0 0 322 280" fill="none" xmlns="http://www.w3.org/2000/svg">
<path d="M262.148 93.4907L143.798 15.19C141.639 13.762 139.102 13 136.507 13C133.912 13 131.374 13.762 129.215 15.19L10.8649 93.4907C9.06762 94.6831 7.59606 96.2989 6.58179 98.1936C5.56751 100.088 5.04213 102.203 5.0526 104.348H5V247.9C5 254.822 7.77088 261.461 12.7031 266.355C17.6353 271.25 24.3248 274 31.3 274H241.7C248.675 274 255.365 271.25 260.297 266.355C265.229 261.461 268 254.822 268 247.9V104.348H267.947C267.957 102.205 267.433 100.092 266.421 98.1973C265.409 96.3031 263.941 94.6863 262.148 93.4907ZM241.7 152.634L136.5 208.749L31.3 152.634V121.274L136.5 177.377L241.7 121.274V152.634Z" fill="white"/>
<path fill-rule="evenodd" clip-rule="evenodd" d="M268.5 5H220V55V105H268.5V155H317V105V55H268.5V5Z" fill="url(#paint0_radial_9_2)"/>
<defs>
<radialGradient id="paint0_radial_9_2" cx="0" cy="0" r="1" gradientUnits="userSpaceOnUse" gradientTransform="translate(220 5) rotate(57.1106) scale(178.631 115.003)">
<stop stop-color="#00A3FF"/>
<stop offset="0.583333" stop-color="#0059FF"/>
<stop offset="1" stop-color="#003597"/>
</radialGradient>
</defs>
</svg>
